<?xml version="1.0" standalone="no"?>
<svg xmlns="http://www.w3.org/2000/svg" viewBox="0 0 101.27 116.936" width="101.27" height="116.936"><polygon fill="none" stroke="#301c78" stroke-width="3" points="99.77,29.984 99.77,86.952 50.635,115.436 1.5,86.952 1.5,29.984 50.635,1.5"></polygon><g fill="#6130ff" color="#6130ff" transform="translate(28.634999999999998 22.5) scale(0.9166667)"><svg width="48.0" height="48.0" x="0.0" y="0.0" viewBox="0 0 48 48"><path fill="currentColor" fill-rule="nonzero" d="M47.02 19.92c.24 1.34.38 2.72.37 4.13 0 .55-.04 1.08-.08 1.62-5 5.07-11.94 8.22-19.6 8.22h-7.87c-5.32 0-10.03 2.66-12.88 6.72-.94-.96-1.81-2.01-2.58-3.12 3.61-4.59 9.19-7.54 15.47-7.54h7.87c7.98 0 15.02-3.97 19.3-10.03zm-27.17 6.1c-6.96 0-13.2 3.03-17.53 7.82-.6-1.32-1.08-2.7-1.44-4.14 4.95-4.71 11.62-7.62 18.97-7.62h7.87c7.31 0 13.46-5.03 15.22-11.8 1 1.39 1.87 2.88 2.55 4.47-3.16 6.66-9.92 11.27-17.77 11.27h-7.87zm0-11.81l7.87-.02c4.34 0 7.87-3.53 7.87-7.87V3.61c1.41.82 2.73 1.78 3.93 2.86-.08 6.45-5.34 11.67-11.8 11.67h-7.87c-7.43 0-14.24 2.6-19.63 6.91-.01-.33-.05-.66-.05-1 0-1.4.15-2.75.38-4.08 5.56-3.63 12.18-5.76 19.3-5.76zm0-3.94c-6.35 0-12.33 1.55-17.65 4.24C5.87 6.23 14.15.44 23.79.44c2.76 0 5.4.5 7.87 1.37v4.52c0 2.17-1.77 3.94-3.94 3.94h-7.87zm7.88 27.55c6.83 0 13.14-2.21 18.32-5.93-3.24 9.18-11.96 15.77-22.25 15.77-5.16 0-9.92-1.68-13.81-4.49 2.11-3.22 5.74-5.35 9.87-5.35h7.87z"></path></svg></g><path fill="#6130ff" fill-rule="nonzero" d="M14.34 0.17L16.38 0.17L16.38 19.77L14.34 19.77L14.34 10.72L2.07 10.72L2.07 19.77L0 19.77L0 0.17L2.07 0.17L2.07 8.90L14.34 8.90L14.34 0.17ZM28.17 19.94Q25.98 19.94 23.98 19.24Q21.98 18.54 20.89 17.39L20.89 17.39L21.70 15.79Q22.76 16.86 24.53 17.51Q26.29 18.17 28.17 18.17L28.17 18.17Q30.80 18.17 32.12 17.21Q33.43 16.24 33.43 14.70L33.43 14.70Q33.43 13.52 32.72 12.82Q32.00 12.12 30.97 11.75Q29.93 11.37 28.08 10.92L28.08 10.92Q25.87 10.36 24.56 9.84Q23.24 9.32 22.30 8.26Q21.36 7.20 21.36 5.38L21.36 5.38Q21.36 3.89 22.15 2.67Q22.93 1.46 24.56 0.73Q26.18 0 28.59 0L28.59 0Q30.27 0 31.88 0.46Q33.49 0.92 34.66 1.74L34.66 1.74L33.96 3.39Q32.73 2.58 31.33 2.17Q29.93 1.76 28.59 1.76L28.59 1.76Q26.01 1.76 24.71 2.76Q23.41 3.75 23.41 5.32L23.41 5.32Q23.41 6.50 24.12 7.21Q24.84 7.92 25.91 8.30Q26.99 8.68 28.81 9.13L28.81 9.13Q30.97 9.66 32.30 10.18Q33.63 10.70 34.55 11.75Q35.48 12.80 35.48 14.59L35.48 14.59Q35.48 16.07 34.68 17.29Q33.88 18.51 32.23 19.22Q30.58 19.94 28.17 19.94L28.17 19.94Z" transform="translate(32.897, 74.5)"></path></svg>