<?xml version="1.0" standalone="no"?>
<svg xmlns="http://www.w3.org/2000/svg" width="312.0541020223363" height="82.57410202233625" viewBox="0 0 312.0541020223363 82.57410202233625"><g fill="#6133f2" color="#6133f2" transform="translate(0 0) scale(1.7202938)"><svg width="48.0" height="48.0" x="0.0" y="0.0" viewBox="0 0 48 48"><path fill="currentColor" fill-rule="nonzero" d="M47.02 19.92c.24 1.34.38 2.72.37 4.13 0 .55-.04 1.08-.08 1.62-5 5.07-11.94 8.22-19.6 8.22h-7.87c-5.32 0-10.03 2.66-12.88 6.72-.94-.96-1.81-2.01-2.58-3.12 3.61-4.59 9.19-7.54 15.47-7.54h7.87c7.98 0 15.02-3.97 19.3-10.03zm-27.17 6.1c-6.96 0-13.2 3.03-17.53 7.82-.6-1.32-1.08-2.7-1.44-4.14 4.95-4.71 11.62-7.62 18.97-7.62h7.87c7.31 0 13.46-5.03 15.22-11.8 1 1.39 1.87 2.88 2.55 4.47-3.16 6.66-9.92 11.27-17.77 11.27h-7.87zm0-11.81l7.87-.02c4.34 0 7.87-3.53 7.87-7.87V3.61c1.41.82 2.73 1.78 3.93 2.86-.08 6.45-5.34 11.67-11.8 11.67h-7.87c-7.43 0-14.24 2.6-19.63 6.91-.01-.33-.05-.66-.05-1 0-1.4.15-2.75.38-4.08 5.56-3.63 12.18-5.76 19.3-5.76zm0-3.94c-6.35 0-12.33 1.55-17.65 4.24C5.87 6.23 14.15.44 23.79.44c2.76 0 5.4.5 7.87 1.37v4.52c0 2.17-1.77 3.94-3.94 3.94h-7.87zm7.88 27.55c6.83 0 13.14-2.21 18.32-5.93-3.24 9.18-11.96 15.77-22.25 15.77-5.16 0-9.92-1.68-13.81-4.49 2.11-3.22 5.74-5.35 9.87-5.35h7.87z"></path></svg></g><path fill="#ffffff" fill-rule="nonzero" d="M20.48 0.24L23.40 0.24L23.40 28.24L20.48 28.24L20.48 15.32L2.96 15.32L2.96 28.24L0 28.24L0 0.24L2.96 0.24L2.96 12.72L20.48 12.72L20.48 0.24ZM44.76 28.48Q40.60 28.48 37.22 26.62Q33.84 24.76 31.94 21.52Q30.04 18.28 30.04 14.24L30.04 14.24Q30.04 10.20 31.94 6.96Q33.84 3.72 37.22 1.86Q40.60 0 44.76 0L44.76 0Q48.92 0 52.26 1.84Q55.60 3.68 57.52 6.94Q59.44 10.20 59.44 14.24L59.44 14.24Q59.44 18.28 57.52 21.54Q55.60 24.80 52.26 26.64Q48.92 28.48 44.76 28.48L44.76 28.48ZM44.76 25.84Q48.08 25.84 50.76 24.34Q53.44 22.84 54.96 20.18Q56.48 17.52 56.48 14.24L56.48 14.24Q56.48 10.96 54.96 8.30Q53.44 5.64 50.76 4.14Q48.08 2.64 44.76 2.64L44.76 2.64Q41.44 2.64 38.74 4.14Q36.04 5.64 34.50 8.30Q32.96 10.96 32.96 14.24L32.96 14.24Q32.96 17.52 34.50 20.18Q36.04 22.84 38.74 24.34Q41.44 25.84 44.76 25.84L44.76 25.84ZM84.44 3.08L83.36 5.40Q79.24 3 74.24 2.64L74.24 2.64L74.24 28.24L71.28 28.24L71.28 2.64Q66.36 2.96 62.12 5.40L62.12 5.40L61.04 3.08Q66.24 0 72.72 0L72.72 0Q79.32 0 84.44 3.08L84.44 3.08ZM107.40 22.80L108.52 25.04Q106.80 26.68 103.94 27.58Q101.08 28.48 97.60 28.48L97.60 28.48Q93.92 28.48 91.34 27.48Q88.76 26.48 87.46 24.72Q86.16 22.96 86.16 20.68L86.16 20.68Q86.16 18.16 87.66 16.40Q89.16 14.64 91.60 13.96L91.60 13.96Q89.60 13.20 88.48 11.54Q87.36 9.88 87.36 7.64L87.36 7.64Q87.36 5.52 88.58 3.78Q89.80 2.04 92.26 1.02Q94.72 0 98.20 0L98.20 0Q100.76 0 103.18 0.58Q105.60 1.16 107.32 2.24L107.32 2.24L106.40 4.60Q102.72 2.52 98.32 2.52L98.32 2.52Q94.44 2.52 92.38 4Q90.32 5.48 90.32 7.84L90.32 7.84Q90.32 10.20 91.98 11.48Q93.64 12.76 96.68 12.76L96.68 12.76L103.64 12.76L103.64 15.32L96.56 15.32Q93.12 15.32 91.12 16.62Q89.12 17.92 89.12 20.48L89.12 20.48Q89.12 23 91.30 24.48Q93.48 25.96 97.72 25.96L97.72 25.96Q100.68 25.96 103.24 25.12Q105.80 24.28 107.40 22.80L107.40 22.80ZM113.88 28.24L113.88 0.24L116.84 0.24L116.84 25.68L132.52 25.68L132.52 28.24L113.88 28.24Z" transform="translate(97.575 0) scale(1.619)"></path><path fill="#ffffff" fill-rule="nonzero" d="M10.40 28.48Q7.28 28.48 4.42 27.48Q1.56 26.48 0 24.84L0 24.84L1.16 22.56Q2.68 24.08 5.20 25.02Q7.72 25.96 10.40 25.96L10.40 25.96Q14.16 25.96 16.04 24.58Q17.92 23.20 17.92 21L17.92 21Q17.92 19.32 16.90 18.32Q15.88 17.32 14.40 16.78Q12.92 16.24 10.28 15.60L10.28 15.60Q7.12 14.80 5.24 14.06Q3.36 13.32 2.02 11.80Q0.68 10.28 0.68 7.68L0.68 7.68Q0.68 5.56 1.80 3.82Q2.92 2.08 5.24 1.04Q7.56 0 11 0L11 0Q13.40 0 15.70 0.66Q18 1.32 19.68 2.48L19.68 2.48L18.68 4.84Q16.92 3.68 14.92 3.10Q12.92 2.52 11 2.52L11 2.52Q7.32 2.52 5.46 3.94Q3.60 5.36 3.60 7.60L3.60 7.60Q3.60 9.28 4.62 10.30Q5.64 11.32 7.18 11.86Q8.72 12.40 11.32 13.04L11.32 13.04Q14.40 13.80 16.30 14.54Q18.20 15.28 19.52 16.78Q20.84 18.28 20.84 20.84L20.84 20.84Q20.84 22.96 19.70 24.70Q18.56 26.44 16.20 27.46Q13.84 28.48 10.40 28.48L10.40 28.48ZM46.16 22.80L47.28 25.04Q45.56 26.68 42.70 27.58Q39.84 28.48 36.36 28.48L36.36 28.48Q32.68 28.48 30.10 27.48Q27.52 26.48 26.22 24.72Q24.92 22.96 24.92 20.68L24.92 20.68Q24.92 18.16 26.42 16.40Q27.92 14.64 30.36 13.96L30.36 13.96Q28.36 13.20 27.24 11.54Q26.12 9.88 26.12 7.64L26.12 7.64Q26.12 5.52 27.34 3.78Q28.56 2.04 31.02 1.02Q33.48 0 36.96 0L36.96 0Q39.52 0 41.94 0.58Q44.36 1.16 46.08 2.24L46.08 2.24L45.16 4.60Q41.48 2.52 37.08 2.52L37.08 2.52Q33.20 2.52 31.14 4Q29.08 5.48 29.08 7.84L29.08 7.84Q29.08 10.20 30.74 11.48Q32.40 12.76 35.44 12.76L35.44 12.76L42.40 12.76L42.40 15.32L35.32 15.32Q31.88 15.32 29.88 16.62Q27.88 17.92 27.88 20.48L27.88 20.48Q27.88 23 30.06 24.48Q32.24 25.96 36.48 25.96L36.48 25.96Q39.44 25.96 42 25.12Q44.56 24.28 46.16 22.80L46.16 22.80ZM75 28.24L71.76 28.24L65.36 19.24Q64.28 19.36 63.12 19.36L63.12 19.36L55.60 19.36L55.60 28.24L52.64 28.24L52.64 0.24L63.12 0.24Q68.48 0.24 71.52 2.80Q74.56 5.36 74.56 9.84L74.56 9.84Q74.56 13.12 72.90 15.38Q71.24 17.64 68.16 18.64L68.16 18.64L75 28.24ZM63.04 16.84Q67.20 16.84 69.40 15.00Q71.60 13.16 71.60 9.84L71.60 9.84Q71.60 6.44 69.40 4.62Q67.20 2.80 63.04 2.80L63.04 2.80L55.60 2.80L55.60 16.84L63.04 16.84ZM100.44 22.80L101.56 25.04Q99.84 26.68 96.98 27.58Q94.12 28.48 90.64 28.48L90.64 28.48Q86.96 28.48 84.38 27.48Q81.80 26.48 80.50 24.72Q79.20 22.96 79.20 20.68L79.20 20.68Q79.20 18.16 80.70 16.40Q82.20 14.64 84.64 13.96L84.64 13.96Q82.64 13.20 81.52 11.54Q80.40 9.88 80.40 7.64L80.40 7.64Q80.40 5.52 81.62 3.78Q82.84 2.04 85.30 1.02Q87.76 0 91.24 0L91.24 0Q93.80 0 96.22 0.58Q98.64 1.16 100.36 2.24L100.36 2.24L99.44 4.60Q95.76 2.52 91.36 2.52L91.36 2.52Q87.48 2.52 85.42 4Q83.36 5.48 83.36 7.84L83.36 7.84Q83.36 10.20 85.02 11.48Q86.68 12.76 89.72 12.76L89.72 12.76L96.68 12.76L96.68 15.32L89.60 15.32Q86.16 15.32 84.16 16.62Q82.16 17.92 82.16 20.48L82.16 20.48Q82.16 23 84.34 24.48Q86.52 25.96 90.76 25.96L90.76 25.96Q93.72 25.96 96.28 25.12Q98.84 24.28 100.44 22.80L100.44 22.80ZM127.20 0.24L130.20 0.24L117.80 28.24L114.88 28.24L102.48 0.24L105.68 0.24L116.40 24.56L127.20 0.24ZM152.88 22.80L154 25.04Q152.28 26.68 149.42 27.58Q146.56 28.48 143.08 28.48L143.08 28.48Q139.40 28.48 136.82 27.48Q134.24 26.48 132.94 24.72Q131.64 22.96 131.64 20.68L131.64 20.68Q131.64 18.16 133.14 16.40Q134.64 14.64 137.08 13.96L137.08 13.96Q135.08 13.20 133.96 11.54Q132.84 9.88 132.84 7.64L132.84 7.64Q132.84 5.52 134.06 3.78Q135.28 2.04 137.74 1.02Q140.20 0 143.68 0L143.68 0Q146.24 0 148.66 0.58Q151.08 1.16 152.80 2.24L152.80 2.24L151.88 4.60Q148.20 2.52 143.80 2.52L143.80 2.52Q139.92 2.52 137.86 4Q135.80 5.48 135.80 7.84L135.80 7.84Q135.80 10.20 137.46 11.48Q139.12 12.76 142.16 12.76L142.16 12.76L149.12 12.76L149.12 15.32L142.04 15.32Q138.60 15.32 136.60 16.62Q134.60 17.92 134.60 20.48L134.60 20.48Q134.60 23 136.78 24.48Q138.96 25.96 143.20 25.96L143.20 25.96Q146.16 25.96 148.72 25.12Q151.28 24.28 152.88 22.80L152.88 22.80ZM171.68 0Q176.72 0 179.58 3Q182.44 6 182.44 11.56L182.44 11.56L182.44 28.24L179.48 28.24L179.48 11.64Q179.48 7.20 177.28 4.92Q175.08 2.64 171.12 2.64L171.12 2.64Q166.96 2.64 164.64 5.06Q162.32 7.48 162.32 12.32L162.32 12.32L162.32 28.24L159.36 28.24L159.36 0.24L162.20 0.24L162.20 4.96Q164.88 0 171.68 0L171.68 0ZM202.76 0Q208.20 0 211.34 3.18Q214.48 6.36 214.48 12.36L214.48 12.36L214.48 28.24L211.56 28.24L211.56 20L193.96 20L193.96 28.24L191.08 28.24L191.08 12.36Q191.08 6.36 194.22 3.18Q197.36 0 202.76 0L202.76 0ZM193.96 17.44L211.56 17.44L211.56 12.08Q211.56 7.40 209.24 5.02Q206.92 2.64 202.76 2.64L202.76 2.64Q198.60 2.64 196.28 5.02Q193.96 7.40 193.96 12.08L193.96 12.08L193.96 17.44Z" transform="translate(97.575 54.095) scale(1)"></path></svg>